<svg width="103" height="103" viewBox="0 0 103 103" fill="none" xmlns="http://www.w3.org/2000/svg">
<path d="M32.1891 21.3671C37.463 19.9542 43.0903 21.4632 46.9508 25.3251L49.5963 27.9715C50.8117 27.575 52.123 27.583 53.3336 27.994L56.0055 25.3221C61.9882 19.4409 71.5925 19.482 77.524 25.4149C83.4556 31.3478 83.4967 40.9542 77.6168 46.9383L74.5592 49.9969C74.6861 50.4805 74.7504 50.9784 74.7506 51.4784C74.7496 51.9724 74.6879 52.4645 74.566 52.9432L77.6139 56.0145C83.4936 61.9986 83.4523 71.605 77.5211 77.5379C71.5896 83.4709 61.9853 83.5129 56.0025 77.6317L52.9801 74.6083C51.9876 74.8717 50.9433 74.8717 49.9508 74.6083L46.9469 77.6161C40.9789 83.5858 31.3022 83.5862 25.3336 77.6171C19.3652 71.6477 19.3648 61.9689 25.3326 55.9989L28.7096 52.618C28.5585 51.8593 28.5585 51.078 28.7096 50.3192L25.3355 46.9413C21.4752 43.0793 19.9679 37.4506 21.3814 32.1756C22.795 26.9006 26.915 22.7801 32.1891 21.3671ZM29.4732 60.1405C25.8966 63.8403 25.9463 69.7249 29.5846 73.3641C33.223 77.0034 39.1063 77.053 42.8053 73.4754L45.7164 70.5604C45.5463 69.9974 45.4606 69.4123 45.4615 68.8241C45.461 68.3023 45.5295 67.782 45.6656 67.2782L35.733 57.3397C34.6663 57.5495 33.5619 57.4643 32.5406 57.0917L29.4732 60.1405ZM70.5279 57.1893C69.4782 57.5153 68.358 57.5405 67.2945 57.2626L57.2184 67.3446C57.3455 67.827 57.4098 68.3242 57.4098 68.8231C57.409 69.3891 57.3285 69.9524 57.1705 70.496L60.1451 73.4745C63.8441 77.0523 69.7283 77.0025 73.3668 73.3631C77.0048 69.7238 77.0538 63.8392 73.4771 60.1395L70.5279 57.1893ZM52.8033 39.4706C51.9259 39.6818 51.0113 39.6879 50.1314 39.4872L40.1822 49.4315C40.6631 50.7501 40.6631 52.1959 40.1822 53.5145L49.7584 63.0926C50.8721 62.7672 52.0566 62.7732 53.1666 63.1112L63.0611 53.2147L63.065 53.2206C62.7184 52.0846 62.7184 50.8712 63.065 49.7352L52.8033 39.4706ZM42.8053 29.4725C39.1064 25.895 33.223 25.9439 29.5846 29.5829C25.9462 33.2221 25.8965 39.1076 29.4732 42.8075L32.5406 45.8729C33.5609 45.496 34.6658 45.4072 35.733 45.6171L45.7721 35.5585C45.7727 35.5603 45.7734 35.5625 45.774 35.5643L45.7769 35.5546L45.7721 35.5585C45.416 34.5054 45.3644 33.3729 45.6236 32.2919L42.8053 29.4725ZM73.356 29.5858C69.7177 25.9466 63.8343 25.897 60.1353 29.4745L57.2623 32.3485C57.3588 32.7757 57.4078 33.2123 57.4088 33.6503C57.4092 34.2747 57.3106 34.8958 57.1158 35.4891L67.3228 45.6893C67.8003 45.5658 68.2916 45.5042 68.7848 45.5047C69.3729 45.5041 69.958 45.5896 70.5211 45.7596L73.4674 42.8104C77.0444 39.1106 76.9946 33.2252 73.356 29.5858Z" fill="#2665F1"/>
</svg>
